<?xml version="1.0" encoding="utf-8"?>
<!-- Generator: Adobe Illustrator 23.0.4, SVG Export Plug-In . SVG Version: 6.00 Build 0)  -->
<svg version="1.1" id="Layer_1" xmlns="http://www.w3.org/2000/svg" xmlns:xlink="http://www.w3.org/1999/xlink" x="0px" y="0px"
	 viewBox="0 0 660.2 2137" style="enable-background:new 0 0 660.2 2137;" xml:space="preserve">
<style type="text/css">
	.st0{opacity:0.5;}
	.st1{opacity:0.25;fill:none;stroke:#EDD894;stroke-width:43;enable-background:new    ;}
	.st2{opacity:0.25;fill:none;stroke:#253D5A;stroke-width:12;stroke-dasharray:20,20;enable-background:new    ;}
</style>
<g class="st0">
	<path class="st1" d="M517.4,721.7c20,84.5-18.5,132-213.5,171"/>
	<path class="st2" d="M478.4,316.7c-8.4,199.2,20.5,349.3,36,399.5c52.5,165.5-155,145-212,180c-18-5.7-59.7,22.2-82.5,179"/>
</g>
<g class="st0">
	<path class="st1" d="M478.9,1177c-63.1,59.7-123.5,50.2-255-99c2-54.6,22.5-171.3,80.5-185.3"/>
	<path class="st2" d="M220.1,1078.4c58.9,31.8,145.1,221.6,262,93.2c48.2-29.9,93.3,16.2-54.3,194.6"/>
</g>
<g class="st0">
	<path class="st1" d="M480.9,1177.2c103-41.5,9.8,98.1-54.5,188.5c-160,118.1-172,180.7-118,248.7c65.3,82.6-4.2,134.7-106,253.3
		c-47,54.7,0,193.5,0,252"/>
	<path class="st2" d="M429,1365.2c-36.8,55.9-217.9,152.4-100.1,280c42.3,55.5-34.5,92.3-89.5,178.5c-94,118-54.5,148.5-36,288"/>
</g>
<g class="st0">
	<path class="st1" d="M516.9,721.7c-31.2-85.6-38.5-295.5-38.5-393.5c-44.7-147.1-112.4-225.4-228-180.3
		c-77,36.3-207.9,59.3-115.5-138.7"/>
	<path class="st2" d="M475.4,308.2c-44.7-147-118-194.4-225-160.6c-77,36.7-207.9,61.3-115.5-133.9"/>
</g>
</svg>
