<?xml version="1.0" encoding="utf-8"?>
<!-- Generator: Adobe Illustrator 23.0.4, SVG Export Plug-In . SVG Version: 6.00 Build 0)  -->
<svg version="1.1" id="Layer_1" xmlns="http://www.w3.org/2000/svg" xmlns:xlink="http://www.w3.org/1999/xlink" x="0px" y="0px"
	 viewBox="0 0 2195 672.2" style="enable-background:new 0 0 2195 672.2;" xml:space="preserve">
<style type="text/css">
	.st0{opacity:0.5;}
	.st1{opacity:0.25;fill:none;stroke:#EDD894;stroke-width:43;enable-background:new    ;}
	.st2{opacity:0.25;fill:none;stroke:#253D5A;stroke-width:12;stroke-dasharray:20,20;enable-background:new    ;}
</style>
<g class="st0">
	<path class="st1" d="M1209.5,434.2c-44,39-169.8,23-186-80.5c-31.5-201-86.5-233.5-171-213.5c-84.5,24-262,1.5-375,31"/>
	<path class="st2" d="M847,143.2c165.5-52.5,145,155,180,212c47.7,127.5,162.5,113.5,182,82"/>
</g>
<g class="st0">
	<path class="st1" d="M1307.8,178.7c59.7,63.1,50.2,123.5-99,255"/>
	<path class="st2" d="M1302.4,175.5c128.4,116.9-61.4,203.2-93.2,262"/>
</g>
<g class="st0">
	<path class="st1" d="M1501.5,226.7c-70.5-126-59-205.6-131-198c-123.5,13-123.5,87.5-63.5,151"/>
	<path class="st2" d="M1496.5,228.7c-42-52-48.8-219-125.5-201c-121,28.4-131,90.5-68.5,147.5"/>
</g>
<g class="st0">
	<path class="st1" d="M1499.8,228.5c118.1,160,200.2,189.2,268.2,135.2c331.5-49.5,409-73.5,454,30.5"/>
	<path class="st2" d="M1496,228.6c65.3,59.1,91.4,194.5,251.5,147.6c160.1-46.9,444.8-91.3,468.5-2"/>
</g>
<g class="st0">
	<path class="st1" d="M2,625.2c87,7,154.5,58,300.5-71.5c49-114.5-45.5-125-36.5-208c9.4-86.5,81.5-139.5,210.5-174.5"/>
	<path class="st2" d="M7,625.7c91.5,17.5,195.5,41,301-84c18.6-46.5,12.6-72.5-23-117.5c-50.5-109.5,21-213.5,185-250.5
		c113.5-30.5,328-15,377-30.5"/>
</g>
</svg>
