<?xml version="1.0" encoding="utf-8"?>
<!-- Generator: Adobe Illustrator 23.0.3, SVG Export Plug-In . SVG Version: 6.00 Build 0)  -->
<svg version="1.1" id="Layer_1" xmlns="http://www.w3.org/2000/svg" xmlns:xlink="http://www.w3.org/1999/xlink" x="0px" y="0px"
	 viewBox="0 0 500 469.6" style="enable-background:new 0 0 500 469.6;" xml:space="preserve">
<style type="text/css">
	.st0{fill:#010101;}
</style>
<path class="st0" d="M461.2,234.6c0-30.4-6.4-60-19-88c0,0,0,0,0,0c-34.7-77.1-111.6-126.9-196-126.9C162,19.7,85,69.5,50.4,146.6
	c-12.6,28-19,57.6-19,88c0,30.4,6.4,60,19,88c0,0,0,0,0,0C85.1,399.8,162,449.6,246.3,449.6c84.3,0,161.2-49.8,196-126.9
	c0,0,0,0,0-0.1C454.9,294.6,461.2,265,461.2,234.6z M318.4,346c-0.5,1.2-1,2.3-1.5,3.4c-1.4,3.2-2.9,6.4-4.4,9.4
	c-0.4,0.9-0.9,1.8-1.3,2.6c-1.9,3.7-4,7.2-6,10.6c-0.5,0.8-1,1.5-1.4,2.2c-1.7,2.7-3.5,5.2-5.3,7.6c-0.6,0.8-1.2,1.7-1.9,2.5
	c-2.3,2.9-4.6,5.7-7,8.2c-0.1,0.1-0.3,0.3-0.4,0.4c-2.3,2.4-4.6,4.5-7,6.6c-0.7,0.6-1.4,1.1-2.1,1.7c-2.1,1.7-4.2,3.2-6.4,4.6
	c-0.5,0.3-1,0.7-1.4,1c-2.6,1.6-5.2,2.9-7.8,4c-0.2,0.1-0.4,0.2-0.6,0.2V333h59.6c0,0.1,0,0.1-0.1,0.2
	C321.8,337.6,320.1,341.8,318.4,346z M220.4,406.7c-0.5-0.3-1-0.7-1.5-1c-2.1-1.4-4.2-2.9-6.3-4.5c-0.7-0.6-1.4-1.1-2.1-1.7
	c-2.4-2-4.7-4.2-6.9-6.5c-0.1-0.1-0.3-0.3-0.4-0.4c-2.4-2.5-4.7-5.3-7-8.2c-0.6-0.8-1.2-1.6-1.9-2.5c-1.8-2.4-3.6-5-5.3-7.7
	c-0.5-0.7-1-1.4-1.4-2.2c-2.1-3.4-4.1-6.9-6.1-10.6c-0.4-0.8-0.9-1.7-1.3-2.6c-1.5-3-3-6.2-4.5-9.4c-0.5-1.1-1-2.2-1.5-3.4
	c-1.7-4.1-3.4-8.3-4.9-12.8c0-0.1,0-0.1-0.1-0.2h59.6v77.9c-0.2-0.1-0.4-0.2-0.7-0.2C225.5,409.6,222.9,408.3,220.4,406.7z
	 M66.4,234.6c0-21.7,3.9-43,11.6-63.3h46c-1.1,6-2,12.1-2.7,18.2c-0.2,1.8-0.4,3.5-0.6,5.3c-0.5,4.8-1,9.7-1.3,14.6
	c-0.1,1.9-0.3,3.8-0.4,5.7c-0.3,6.5-0.6,13-0.6,19.6c0,6.6,0.2,13.1,0.6,19.6c0.1,1.9,0.2,3.8,0.4,5.7c0.3,4.9,0.8,9.8,1.3,14.7
	c0.2,1.7,0.4,3.5,0.6,5.2c0.8,6.1,1.6,12.2,2.7,18.2H78C70.3,277.6,66.4,256.4,66.4,234.6z M174.2,123.2c0.5-1.1,0.9-2.2,1.4-3.3
	c1.5-3.3,3-6.5,4.5-9.6c0.4-0.8,0.8-1.7,1.3-2.5c2-3.7,4-7.3,6.1-10.6c0.5-0.7,0.9-1.4,1.4-2.1c1.7-2.7,3.5-5.3,5.3-7.7
	c0.6-0.8,1.2-1.6,1.8-2.4c2.3-2.9,4.6-5.7,7-8.3c0.1-0.1,0.2-0.2,0.4-0.3c2.3-2.4,4.6-4.6,7-6.6c0.7-0.6,1.4-1.1,2.1-1.7
	c2.1-1.7,4.2-3.2,6.3-4.6c0.5-0.3,1-0.7,1.4-1c2.6-1.5,5.2-2.9,7.8-4c0.2-0.1,0.4-0.2,0.7-0.2v77.9h-59.6c0,0,0-0.1,0-0.1
	C170.8,131.7,172.5,127.4,174.2,123.2z M272.3,62.6c0.5,0.3,1,0.7,1.5,1c2.1,1.4,4.2,2.9,6.3,4.5c0.7,0.6,1.4,1.1,2.1,1.7
	c2.4,2,4.7,4.2,6.9,6.5c0.1,0.1,0.3,0.3,0.4,0.4c2.4,2.5,4.7,5.3,7,8.2c0.6,0.8,1.2,1.6,1.8,2.4c1.8,2.4,3.6,5,5.3,7.7
	c0.5,0.7,0.9,1.4,1.4,2.1c2.1,3.4,4.1,6.9,6.1,10.6c0.4,0.8,0.8,1.7,1.3,2.6c1.6,3.1,3.1,6.2,4.5,9.5c0.5,1.1,1,2.2,1.4,3.3
	c1.7,4.1,3.4,8.4,5,12.8c0,0.1,0,0.1,0.1,0.2h-59.6V58.4c0.2,0.1,0.4,0.1,0.6,0.2C267.1,59.7,269.7,61,272.3,62.6z M159.8,298
	c-0.2-1-0.5-2-0.7-3c-0.4-2-0.7-4-1.1-6.1c-0.7-3.9-1.3-7.7-1.8-11.7c-0.3-2.1-0.6-4.2-0.8-6.4c-0.5-4.1-0.8-8.2-1.1-12.4
	c-0.1-1.9-0.3-3.8-0.4-5.7c-0.3-6-0.5-12.1-0.5-18.2c0-6.1,0.2-12.1,0.5-18.2c0.1-1.9,0.3-3.8,0.4-5.7c0.3-4.1,0.7-8.3,1.1-12.3
	c0.2-2.1,0.5-4.3,0.8-6.4c0.5-3.9,1.1-7.8,1.8-11.6c0.3-2,0.7-4.1,1.1-6.1c0.2-1,0.5-2,0.7-3h69V298H159.8z M263.8,171.3h69
	c0.2,1,0.5,2,0.7,3.1c0.4,2,0.7,4,1,6c0.7,3.9,1.3,7.8,1.8,11.7c0.3,2.1,0.5,4.2,0.8,6.4c0.5,4.1,0.8,8.2,1.1,12.4
	c0.1,1.9,0.3,3.8,0.4,5.7c0.3,6,0.5,12.1,0.5,18.2c0,6.1-0.2,12.2-0.5,18.2c-0.1,1.9-0.3,3.8-0.4,5.7c-0.3,4.1-0.7,8.3-1.1,12.3
	c-0.2,2.1-0.5,4.3-0.8,6.4c-0.5,3.9-1.1,7.8-1.8,11.7c-0.3,2-0.7,4-1,6c-0.2,1-0.5,2.1-0.7,3.1h-69V171.3z M371.3,279.8
	c0.2-1.7,0.4-3.5,0.6-5.2c0.5-4.9,1-9.8,1.3-14.7c0.1-1.9,0.3-3.7,0.4-5.6c0.3-6.5,0.6-13,0.6-19.6c0-6.6-0.2-13.1-0.6-19.6
	c-0.1-1.9-0.2-3.8-0.4-5.6c-0.3-4.9-0.8-9.8-1.3-14.7c-0.2-1.7-0.4-3.5-0.6-5.2c-0.8-6.1-1.6-12.2-2.7-18.2h46
	c7.7,20.4,11.6,41.6,11.6,63.3c0,21.7-3.9,43-11.6,63.3h-46C369.7,292,370.6,285.9,371.3,279.8z M396.8,136.3h-36.5
	c-0.1-0.2-0.2-0.4-0.2-0.7c-1.6-5.2-3.2-10.2-5-15.1c-0.4-1-0.8-2-1.2-3.1c-1.4-3.8-2.9-7.5-4.5-11.1c-0.7-1.6-1.4-3.2-2.2-4.7
	c-1.3-2.9-2.7-5.8-4.1-8.6c-0.8-1.6-1.7-3.2-2.6-4.8c-1.4-2.6-2.8-5.1-4.3-7.6c-0.5-0.8-0.9-1.7-1.4-2.5
	C359.5,92.2,380.9,112,396.8,136.3z M157.8,78.1c-0.5,0.8-1,1.7-1.5,2.6c-1.4,2.4-2.8,4.9-4.2,7.4c-0.9,1.6-1.8,3.3-2.6,5
	c-1.4,2.7-2.7,5.6-4,8.4c-0.7,1.6-1.5,3.2-2.2,4.9c-1.5,3.6-3,7.2-4.4,11c-0.4,1.1-0.9,2.1-1.3,3.2c-1.8,4.9-3.4,9.9-5,15.1
	c-0.1,0.2-0.2,0.4-0.2,0.7H95.8C111.7,112,133.1,92.2,157.8,78.1z M95.8,333h36.5c0.1,0.2,0.2,0.4,0.2,0.7c1.6,5.2,3.2,10.2,5,15
	c0.4,1.2,0.9,2.2,1.3,3.4c1.4,3.7,2.8,7.3,4.3,10.8c0.7,1.7,1.5,3.3,2.3,5c1.3,2.8,2.6,5.6,4,8.3c0.9,1.7,1.8,3.4,2.7,5.1
	c1.4,2.5,2.7,4.9,4.2,7.3c0.5,0.8,1,1.8,1.5,2.6C133.1,377.1,111.7,357.3,95.8,333z M334.8,391.1c0.5-0.8,1-1.7,1.5-2.6
	c1.4-2.4,2.8-4.9,4.2-7.4c0.9-1.6,1.8-3.2,2.6-4.9c1.4-2.8,2.8-5.7,4.1-8.6c0.7-1.6,1.5-3.1,2.2-4.7c1.6-3.7,3.1-7.5,4.6-11.4
	c0.4-1,0.8-1.9,1.1-2.8c1.8-4.9,3.4-9.9,5-15.1c0.1-0.2,0.1-0.4,0.2-0.6h36.5C380.9,357.3,359.5,377.1,334.8,391.1z"/>
</svg>
